<svg version="1.2" xmlns="http://www.w3.org/2000/svg" viewBox="114 105.00000000000003 512 426.7585724109997" width="512" height="427"><style>.a{fill:#e63030}</style><path class="a" d="m432.1 105c20.7 5.9 42.1 9.7 61.1 20.5 12.6 7.2 25.3 16.5 35.7 26.6 0-7.2-0.2-17.9-1.3-25 27.9 23.1 40.6 38.9 55.2 72.2 3.2-4.8 6-13.1 8.2-18.7 0.9 4.3 2.9 10 4.3 14.2 17.6 53.6 15.3 113.1-19 159.8-2.8 3.9-6.1 8.6-8.8 12.7 27.7-28.8 46-52.6 53.4-93.9 1.1-6.3 1.3-11.6 2-17.8 3.2 14.2 2.9 28.6 3.1 43 1.3 79.4-55.7 149.6-136.2 157-10.3 1-19.1 0.9-29.2 1.3 10.5 2.2 29.7 2.7 40.2 1.9 44-3.5 78.5-23.6 107-56.2q-4.1 7.5-8.8 14.6c-62.1 93.4-157.1 94.1-240.9 29.8-4.3-3.4-9.4-7.5-14-10.5l-0.4-0.2c21.2 22.9 37.3 36.5 65.5 51.1 37.8 19.5 74.6 22.4 115.1 9.2-7.7 5.2-15.9 9.8-24.3 13.8-60 29.1-135.3 33.1-184.8-17.6-26.2-26.9-43-60.5-80.8-72.8-22.3-7.3-44.9-5-65.9 5.5-18.9 9.6-34.2 25.2-43.5 44.2-3.9 8.1-7.5 18.8-10.3 27.3-0.3-16.5-1.5-32.3 0.2-48.9 4.7-46.6 25.7-94 62.1-124.2 22.4-18.9 50.6-29.6 79.9-30.4 7.7-0.2 14.4 0.6 22 1.3-6.7 1.6-13.2 3.3-19.9 5-25 6.6-49.5 25.8-61.9 48.8q-3.3 6-6.5 12.1c1.7-1.1 7.5-9.8 9.1-11.9 9.2-12.7 24.1-23.9 38-30.8 23.9-11.8 51.2-12.3 76.7-5.6 23 6 54.1 17.4 77.8 13.2-36.7 19.8-77.4 9.1-116.4 4.5 17.5 7.1 33.7 11.6 51.8 16.4 50.2 13.4 104.1-5.8 110.1-62.9 2.4-22-2.3-37-8.4-57.7 26.6 29.7 42.3 75.8 26.5 114.8-3 7.2-8.8 15.9-13.1 22.5 19.7-17.6 29.5-36 28.3-62.9-1.2-27-10.6-48.5-23.9-71.3 4.1 3.8 8.7 7.3 13.1 10.8-1.6-28.5-3.7-39.6-15.5-65.9 5.6 2.3 20.3 7.6 25.8 9.4-7.6-31.6-19.1-52.4-38.4-78.3zm53.5 102.9c-4-2.8-11.5-8.4-15.6-10.4 3.5 14.7 2.9 31.7 5.9 46.1 0.6 3.1 9.5 16 11.7 20.3 0-10.9-0.4-22-3-32.6 14.2 10.6 14.6 14.9 22.1 29.7 4.4-25.5 1.6-47.8-1.5-73 16.6 18.5 21.8 26.1 33.7 48 3.5-11.7 4.3-25.1 5.5-37.2l2.8 4.9c13 23.9 15.5 42.8 16.9 68.8 6.4-6.5 10.5-18.3 13.7-27.1 4.1 12 3.4 19.3 6.4 29 4.2-12.6 1.6-39.6-2.9-51.8-4.1 4.4-6.8 8.4-9.7 13.7 0-6.9 0.1-13.3-1.2-20.1-3-16.3-16.7-39-28.2-50.6l-0.5-0.5q-2.9 11.6-7.1 22.7c-5.2-7.3-10.1-14-16-20.7-11.8-13.3-32.3-27.4-48.8-34.8 10.8 29.9 15.8 42.7 15.8 75.6z"/><path class="a" d="m207.4 430c6-0.9 16.9 0.6 22.5 2.6 32.4 11.7 52.1 41.8 66.8 70.5-18.5-18.7-35.3-34.3-61.4-42.7-37.4-14.2-74.7-2.9-103.4 23.5 16.1-31.8 39.6-50.7 75.5-53.9z"/></svg>
